<svg width="520" height="520" viewBox="0 0 520 520" xmlns="http://www.w3.org/2000/svg">
  <rect width="520" height="520" fill="none"/>
  <g fill="none" stroke="#bd9442" stroke-width="7" stroke-linecap="round" stroke-linejoin="round" opacity="0.14">
    <path d="M260 34c-28 34-52 64-52 104 0 31 20 53 52 76 32-23 52-45 52-76 0-40-24-70-52-104Z"/>
    <path d="M260 68c-13 22-24 41-24 65 0 19 9 34 24 48 15-14 24-29 24-48 0-24-11-43-24-65Z"/>
    <path d="M198 150c-62 2-108 38-122 96 50-19 88-15 116 11 24 22 31 55 13 98 54-24 85-68 82-119-2-42-34-87-89-86Z"/>
    <path d="M322 150c62 2 108 38 122 96-50-19-88-15-116 11-24 22-31 55-13 98-54-24-85-68-82-119 2-42 34-87 89-86Z"/>
    <path d="M166 198c-28 30-39 66-31 106"/>
    <path d="M354 198c28 30 39 66 31 106"/>
    <path d="M260 234c-34 25-52 55-52 91 0 50 28 88 52 118 24-30 52-68 52-118 0-36-18-66-52-91Z"/>
    <path d="M260 277c-14 17-23 33-23 54 0 24 10 45 23 65 13-20 23-41 23-65 0-21-9-37-23-54Z"/>
    <path d="M174 414c39-6 69 3 86 35 17-32 47-41 86-35"/>
    <path d="M110 452c38-42 77-57 118-43"/>
    <path d="M410 452c-38-42-77-57-118-43"/>
  </g>
  <g fill="#fffdf8" opacity="0.05">
    <circle cx="260" cy="214" r="8"/>
    <circle cx="260" cy="452" r="8"/>
    <circle cx="104" cy="284" r="5"/>
    <circle cx="416" cy="284" r="5"/>
    <circle cx="154" cy="380" r="4"/>
    <circle cx="366" cy="380" r="4"/>
  </g>
</svg>
