<svg width="900" height="900" viewBox="0 0 900 900" fill="none" xmlns="http://www.w3.org/2000/svg" role="img" aria-labelledby="title desc">
  <title id="title">Quinta Las Águilas</title>
  <desc id="desc">Logo circular con águila dorada y el texto Quinta Las Águilas.</desc>
  <circle cx="450" cy="450" r="414" fill="#fffefb" stroke="#e0dcd4" stroke-width="2"/>

  <g fill="#bd9442">
    <path d="M449.2 238.8c-18.4 0-33.5 9.8-39.5 25.4 19.7-7.8 41.8-2.7 53.4 12.3-1.8 11.2-11.7 20.8-26.4 23.6-33.6 6.5-52.4 31.6-69.8 54.8-19.6 26.1-43.2 37.2-75.5 26.9-62.7-19.9-127.6-62.6-194.6-128.1 12.6 51.4 67.1 105.9 154.4 150.5-53.5-.6-105.8-19.1-156.8-55.4 33.9 53.1 86.7 91 157.9 113.7-45.3 5.3-88.1-3.3-128.4-25.9 46.2 48.3 102.1 74.6 167.8 79-31.7 20.8-67.9 27.7-108.4 20.8 51.8 38.4 106.5 49.3 164.1 32.5-6.5 21.9-22.8 40.2-48.7 55 47.3 2.2 88.6-14.8 123.8-50.9 12.6 23.3 31.5 34.9 56.7 34.9s44.1-11.6 56.7-34.9c35.2 36.1 76.5 53.1 123.8 50.9-25.9-14.8-42.2-33.1-48.7-55 57.6 16.8 112.3 5.9 164.1-32.5-40.5 6.9-76.7 0-108.4-20.8 65.7-4.4 121.6-30.7 167.8-79-40.3 22.6-83.1 31.2-128.4 25.9 71.2-22.7 124-60.6 157.9-113.7-51 36.3-103.3 54.8-156.8 55.4 87.3-44.6 141.8-99.1 154.4-150.5-67 65.5-131.9 108.2-194.6 128.1-32.3 10.3-55.9-.8-75.5-26.9-17.4-23.2-36.2-48.3-69.8-54.8-14.7-2.8-24.6-12.4-26.4-23.6 11.6-15 33.7-20.1 53.4-12.3-6-15.6-21.1-25.4-39.5-25.4Z"/>
    <path d="M276 599H360" stroke="#bd9442" stroke-width="4" stroke-linecap="round"/>
    <path d="M540 599H624" stroke="#bd9442" stroke-width="4" stroke-linecap="round"/>
  </g>

  <text x="450" y="552" text-anchor="middle" font-family="Georgia, 'Times New Roman', serif" font-size="88" letter-spacing="18" fill="#07101f">QUINTA</text>
  <text x="450" y="632" text-anchor="middle" font-family="Georgia, 'Times New Roman', serif" font-size="74" letter-spacing="10" fill="#07101f">LAS ÁGUILAS</text>
</svg>
